<svg class="typst-doc" viewBox="0 0 595.2755905511812 841.8897637795276" width="595.2755905511812pt" height="841.8897637795276pt" xmlns="http://www.w3.org/2000/svg" xmlns:xlink="http://www.w3.org/1999/xlink" xmlns:h5="http://www.w3.org/1999/xhtml">
    <path class="typst-shape" fill="#ffffff" fill-rule="nonzero" d="M 0 0v 841.8898 h 595.2756 v -841.8898 Z "/>
    <g>
        <g class="typst-group">
            <g>
                <g class="typst-text" transform="matrix(1 0 0 -1 70.86614173228347 78.37914173228346)">
                    <use xlink:href="#g9CCFFF0A26597831BDE5F8A20939EA6" x="0" y="0" fill="#000000" fill-rule="nonzero"/>
                </g>
                <g class="typst-group">
                    <g>
                        <g class="typst-text" transform="matrix(1 0 0 -1 93.14114173228346 78.37914173228346)">
                            <use xlink:href="#gB036BE318FAA4AD8D57F0564B0D0EA8B" x="0" y="0" fill="#000000" fill-rule="nonzero"/>
                            <use xlink:href="#g86B9164A7C25BA07720B571C0FC81FA5" x="7.4910000000000005" y="0" fill="#000000" fill-rule="nonzero"/>
                            <use xlink:href="#g1D62568393B551C8D8CE89DE806E4B6F" x="13.607000000000001" y="0" fill="#000000" fill-rule="nonzero"/>
                            <use xlink:href="#g25E979771521C3EE548B75F4F6396784" x="17.886000000000003" y="0" fill="#000000" fill-rule="nonzero"/>
                            <use xlink:href="#g825B57DE027EE57C372F9A081EF8A0E1" x="20.944000000000003" y="0" fill="#000000" fill-rule="nonzero"/>
                            <use xlink:href="#gBFA28B44E7CFB0C99CA80F38E352C676" x="25.256000000000004" y="0" fill="#000000" fill-rule="nonzero"/>
                        </g>
                        <g class="typst-text" transform="matrix(1 0 0 -1 126.93314173228345 78.37914173228346)">
                            <use xlink:href="#g1D42D595C156D9760073829CA35E7046" x="0" y="0" fill="#000000" fill-rule="nonzero"/>
                        </g>
                        <g class="typst-text" transform="matrix(1 0 0 -1 138.83514173228346 78.37914173228346)">
                            <use xlink:href="#g651F50EBD4BCE47BCDC2129F2ADBA754" x="0" y="0" fill="#000000" fill-rule="nonzero"/>
                        </g>
                        <g class="typst-text" transform="matrix(1 0 0 -1 150.27514173228346 78.37914173228346)">
                            <use xlink:href="#g8EFC12D366EB7A90CD6C24992AD63AE3" x="0" y="0" fill="#000000" fill-rule="nonzero"/>
                        </g>
                    </g>
                </g>
                <g class="typst-group">
                    <g>
                        <g class="typst-text" transform="matrix(1 0 0 -1 70.86614173228347 96.89214173228346)">
                            <use xlink:href="#g27D0FD828B836FBA22CC50BA9BB47368" x="0" y="0" fill="#000000" fill-rule="nonzero"/>
                        </g>
                        <g class="typst-text" transform="matrix(1 0 0 -1 93.14114173228346 96.25524173228347)">
                            <use xlink:href="#g99D92498F09437C8B675035FEDCDF3F8" x="0" y="0" fill="#2f80a8" fill-rule="nonzero"/>
                            <use xlink:href="#gD5F777430E54FB136E8D624FA7C5A2DC" x="7.325449999999999" y="0" fill="#2f80a8" fill-rule="nonzero"/>
                            <use xlink:href="#gDF8FA06D336266B8BB98E59BCBD8BECC" x="11.996599999999999" y="0" fill="#2f80a8" fill-rule="nonzero"/>
                            <use xlink:href="#gA5BE1F0074DD0F6DD9EDC3FD9EE8562F" x="17.848599999999998" y="0" fill="#2f80a8" fill-rule="nonzero"/>
                            <use xlink:href="#g719363D0F368416E7AF1615E29BE82E1" x="23.512499999999996" y="0" fill="#2f80a8" fill-rule="nonzero"/>
                            <use xlink:href="#gF1EA6F28BF3D8ABEB5290BAC56137E8F" x="26.344449999999995" y="0" fill="#2f80a8" fill-rule="nonzero"/>
                            <use xlink:href="#g719363D0F368416E7AF1615E29BE82E1" x="29.646649999999994" y="0" fill="#2f80a8" fill-rule="nonzero"/>
                            <use xlink:href="#g30DF828CB9F7BB2530AE4B358D499BB" x="32.47859999999999" y="0" fill="#2f80a8" fill-rule="nonzero"/>
                            <use xlink:href="#gA5BE1F0074DD0F6DD9EDC3FD9EE8562F" x="37.74539999999999" y="0" fill="#2f80a8" fill-rule="nonzero"/>
                            <use xlink:href="#g30DF828CB9F7BB2530AE4B358D499BB" x="46.021799999999985" y="0" fill="#2f80a8" fill-rule="nonzero"/>
                            <use xlink:href="#gF45808ED56D4C9A2B99871C525B6B499" x="51.28859999999998" y="0" fill="#2f80a8" fill-rule="nonzero"/>
                            <use xlink:href="#g7BCC4A2BCB613C64E4278339F1F7DD82" x="57.14059999999998" y="0" fill="#2f80a8" fill-rule="nonzero"/>
                            <use xlink:href="#gA5BE1F0074DD0F6DD9EDC3FD9EE8562F" x="62.96124999999998" y="0" fill="#2f80a8" fill-rule="nonzero"/>
                            <use xlink:href="#gF1EA6F28BF3D8ABEB5290BAC56137E8F" x="68.62514999999998" y="0" fill="#2f80a8" fill-rule="nonzero"/>
                            <use xlink:href="#g719363D0F368416E7AF1615E29BE82E1" x="71.92734999999998" y="0" fill="#2f80a8" fill-rule="nonzero"/>
                            <use xlink:href="#g1002E1207358CEC42281382EA0674BD9" x="74.75929999999998" y="0" fill="#2f80a8" fill-rule="nonzero"/>
                            <use xlink:href="#gD5F777430E54FB136E8D624FA7C5A2DC" x="78.56309999999998" y="0" fill="#2f80a8" fill-rule="nonzero"/>
                        </g>
                    </g>
                </g>
                <g class="typst-group">
                    <g>
                        <g class="typst-text" transform="matrix(1 0 0 -1 93.14114173228346 115.40514173228345)">
                            <use xlink:href="#g8EFC12D366EB7A90CD6C24992AD63AE3" x="0" y="0" fill="#000000" fill-rule="nonzero"/>
                            <use xlink:href="#gBFA28B44E7CFB0C99CA80F38E352C676" x="8.096" y="0" fill="#000000" fill-rule="nonzero"/>
                            <use xlink:href="#gC9A187A9B093CE466120778A6B56427" x="12.98" y="0" fill="#000000" fill-rule="nonzero"/>
                            <use xlink:href="#g4FB01F9F857AF4B1654618D9B4C6D6C9" x="16.346" y="0" fill="#000000" fill-rule="nonzero"/>
                            <use xlink:href="#gBFA28B44E7CFB0C99CA80F38E352C676" x="19.404" y="0" fill="#000000" fill-rule="nonzero"/>
                            <use xlink:href="#gE7E782F4A4EF0170E26DA1C6C27BD8F4" x="24.288" y="0" fill="#000000" fill-rule="nonzero"/>
                            <use xlink:href="#g25E979771521C3EE548B75F4F6396784" x="30.096" y="0" fill="#000000" fill-rule="nonzero"/>
                            <use xlink:href="#g60FF11D5EEDDBD5A3A8FC43CC590A975" x="33.154" y="0" fill="#000000" fill-rule="nonzero"/>
                            <use xlink:href="#gBFA28B44E7CFB0C99CA80F38E352C676" x="38.962" y="0" fill="#000000" fill-rule="nonzero"/>
                        </g>
                        <g class="typst-text" transform="matrix(1 0 0 -1 140.63914173228346 115.40514173228345)">
                            <use xlink:href="#gD2F3AC582DA28D56AB62ACB7E8E88E42" x="0" y="0" fill="#000000" fill-rule="nonzero"/>
                        </g>
                        <g class="typst-text" transform="matrix(1 0 0 -1 144.91814173228346 115.40514173228345)">
                            <use xlink:href="#gF78BEB212BD5AC1D6D4D4286EBDA6682" x="0" y="0" fill="#000000" fill-rule="nonzero"/>
                            <use xlink:href="#gBFA28B44E7CFB0C99CA80F38E352C676" x="8.558" y="0" fill="#000000" fill-rule="nonzero"/>
                            <use xlink:href="#g825B57DE027EE57C372F9A081EF8A0E1" x="13.442" y="0" fill="#000000" fill-rule="nonzero"/>
                            <use xlink:href="#g86B9164A7C25BA07720B571C0FC81FA5" x="17.754" y="0" fill="#000000" fill-rule="nonzero"/>
                            <use xlink:href="#gBFA28B44E7CFB0C99CA80F38E352C676" x="23.87" y="0" fill="#000000" fill-rule="nonzero"/>
                            <use xlink:href="#g4FB01F9F857AF4B1654618D9B4C6D6C9" x="28.754" y="0" fill="#000000" fill-rule="nonzero"/>
                        </g>
                        <g class="typst-text" transform="matrix(1 0 0 -1 180.38214173228346 115.40514173228345)">
                            <use xlink:href="#g8EFC12D366EB7A90CD6C24992AD63AE3" x="0" y="0" fill="#000000" fill-rule="nonzero"/>
                        </g>
                        <g class="typst-text" transform="matrix(1 0 0 -1 188.47814173228346 115.40514173228345)">
                            <use xlink:href="#g310303A7769E3646805F626E9CBB0554" x="0" y="0" fill="#000000" fill-rule="nonzero"/>
                        </g>
                    </g>
                </g>
                <g class="typst-group">
                    <g>
                        <g class="typst-text" transform="matrix(1 0 0 -1 70.86614173228347 133.91814173228346)">
                            <use xlink:href="#g27D0FD828B836FBA22CC50BA9BB47368" x="0" y="0" fill="#000000" fill-rule="nonzero"/>
                        </g>
                        <g class="typst-text" transform="matrix(1 0 0 -1 93.14114173228346 133.28124173228346)">
                            <use xlink:href="#g99D92498F09437C8B675035FEDCDF3F8" x="0" y="0" fill="#2f80a8" fill-rule="nonzero"/>
                            <use xlink:href="#gD5F777430E54FB136E8D624FA7C5A2DC" x="7.325449999999999" y="0" fill="#2f80a8" fill-rule="nonzero"/>
                            <use xlink:href="#gDF8FA06D336266B8BB98E59BCBD8BECC" x="11.996599999999999" y="0" fill="#2f80a8" fill-rule="nonzero"/>
                            <use xlink:href="#gA5BE1F0074DD0F6DD9EDC3FD9EE8562F" x="17.848599999999998" y="0" fill="#2f80a8" fill-rule="nonzero"/>
                            <use xlink:href="#g719363D0F368416E7AF1615E29BE82E1" x="23.512499999999996" y="0" fill="#2f80a8" fill-rule="nonzero"/>
                            <use xlink:href="#gF1EA6F28BF3D8ABEB5290BAC56137E8F" x="26.344449999999995" y="0" fill="#2f80a8" fill-rule="nonzero"/>
                            <use xlink:href="#g719363D0F368416E7AF1615E29BE82E1" x="29.646649999999994" y="0" fill="#2f80a8" fill-rule="nonzero"/>
                            <use xlink:href="#g30DF828CB9F7BB2530AE4B358D499BB" x="32.47859999999999" y="0" fill="#2f80a8" fill-rule="nonzero"/>
                            <use xlink:href="#gA5BE1F0074DD0F6DD9EDC3FD9EE8562F" x="37.74539999999999" y="0" fill="#2f80a8" fill-rule="nonzero"/>
                            <use xlink:href="#g30DF828CB9F7BB2530AE4B358D499BB" x="46.021799999999985" y="0" fill="#2f80a8" fill-rule="nonzero"/>
                            <use xlink:href="#gF45808ED56D4C9A2B99871C525B6B499" x="51.28859999999998" y="0" fill="#2f80a8" fill-rule="nonzero"/>
                            <use xlink:href="#g2A4C92B2BFAF4CC6B09F69CBFC11E437" x="57.14059999999998" y="0" fill="#2f80a8" fill-rule="nonzero"/>
                            <use xlink:href="#gD5F777430E54FB136E8D624FA7C5A2DC" x="63.274749999999976" y="0" fill="#2f80a8" fill-rule="nonzero"/>
                            <use xlink:href="#g7955F8D03B8EA44555B4A0B02921DF1E" x="67.94589999999998" y="0" fill="#2f80a8" fill-rule="nonzero"/>
                            <use xlink:href="#gD5F777430E54FB136E8D624FA7C5A2DC" x="73.58889999999998" y="0" fill="#2f80a8" fill-rule="nonzero"/>
                            <use xlink:href="#gD7D2435C326F8AEC98C961458AB6EFCA" x="78.18689999999998" y="0" fill="#2f80a8" fill-rule="nonzero"/>
                            <use xlink:href="#g719363D0F368416E7AF1615E29BE82E1" x="83.30739999999997" y="0" fill="#2f80a8" fill-rule="nonzero"/>
                            <use xlink:href="#g3155D8AAB125E481A66E3281C937A8C6" x="86.13934999999998" y="0" fill="#2f80a8" fill-rule="nonzero"/>
                            <use xlink:href="#gD5F777430E54FB136E8D624FA7C5A2DC" x="91.24939999999998" y="0" fill="#2f80a8" fill-rule="nonzero"/>
                        </g>
                    </g>
                </g>
                <g class="typst-group">
                    <g>
                        <g class="typst-text" transform="matrix(1 0 0 -1 93.14114173228346 152.43114173228346)">
                            <use xlink:href="#g25E979771521C3EE548B75F4F6396784" x="0" y="0" fill="#000000" fill-rule="nonzero"/>
                            <use xlink:href="#g3158FC9B20398C3D022403A7F40F1938" x="3.0580000000000003" y="0" fill="#000000" fill-rule="nonzero"/>
                        </g>
                        <g class="typst-text" transform="matrix(1 0 0 -1 102.31514173228346 155.14814173228345)">
                            <use xlink:href="#g91B22411A885B809DF842DF9FB261DDF" x="0" y="0" fill="#000000" fill-rule="nonzero"/>
                        </g>
                        <g class="typst-text" transform="matrix(1 0 0 -1 111.43829728783902 152.43114173228346)">
                            <use xlink:href="#gDB53F8619B2DD91365F060A9A25D7401" x="0" y="0" fill="#000000" fill-rule="nonzero"/>
                        </g>
                        <g class="typst-text" transform="matrix(1 0 0 -1 123.05185284339457 152.43114173228346)">
                            <use xlink:href="#gF78BEB212BD5AC1D6D4D4286EBDA6682" x="0" y="0" fill="#000000" fill-rule="nonzero"/>
                            <use xlink:href="#gBFA28B44E7CFB0C99CA80F38E352C676" x="8.558" y="0" fill="#000000" fill-rule="nonzero"/>
                            <use xlink:href="#g825B57DE027EE57C372F9A081EF8A0E1" x="13.442" y="0" fill="#000000" fill-rule="nonzero"/>
                            <use xlink:href="#g86B9164A7C25BA07720B571C0FC81FA5" x="17.754" y="0" fill="#000000" fill-rule="nonzero"/>
                            <use xlink:href="#gBFA28B44E7CFB0C99CA80F38E352C676" x="23.87" y="0" fill="#000000" fill-rule="nonzero"/>
                            <use xlink:href="#g4FB01F9F857AF4B1654618D9B4C6D6C9" x="28.754" y="0" fill="#000000" fill-rule="nonzero"/>
                        </g>
                        <g class="typst-text" transform="matrix(1 0 0 -1 158.51585284339455 152.43114173228346)">
                            <use xlink:href="#g8EFC12D366EB7A90CD6C24992AD63AE3" x="0" y="0" fill="#000000" fill-rule="nonzero"/>
                        </g>
                    </g>
                </g>
                <g class="typst-group">
                    <g>
                        <g class="typst-text" transform="matrix(1 0 0 -1 70.86614173228347 170.94414173228347)">
                            <use xlink:href="#g27D0FD828B836FBA22CC50BA9BB47368" x="0" y="0" fill="#000000" fill-rule="nonzero"/>
                        </g>
                        <g class="typst-text" transform="matrix(1 0 0 -1 93.14114173228346 170.30724173228344)">
                            <use xlink:href="#g99D92498F09437C8B675035FEDCDF3F8" x="0" y="0" fill="#2f80a8" fill-rule="nonzero"/>
                            <use xlink:href="#gD5F777430E54FB136E8D624FA7C5A2DC" x="7.325449999999999" y="0" fill="#2f80a8" fill-rule="nonzero"/>
                            <use xlink:href="#gDF8FA06D336266B8BB98E59BCBD8BECC" x="11.996599999999999" y="0" fill="#2f80a8" fill-rule="nonzero"/>
                            <use xlink:href="#gA5BE1F0074DD0F6DD9EDC3FD9EE8562F" x="17.848599999999998" y="0" fill="#2f80a8" fill-rule="nonzero"/>
                            <use xlink:href="#g719363D0F368416E7AF1615E29BE82E1" x="23.512499999999996" y="0" fill="#2f80a8" fill-rule="nonzero"/>
                            <use xlink:href="#gF1EA6F28BF3D8ABEB5290BAC56137E8F" x="26.344449999999995" y="0" fill="#2f80a8" fill-rule="nonzero"/>
                            <use xlink:href="#g719363D0F368416E7AF1615E29BE82E1" x="29.646649999999994" y="0" fill="#2f80a8" fill-rule="nonzero"/>
                            <use xlink:href="#g30DF828CB9F7BB2530AE4B358D499BB" x="32.47859999999999" y="0" fill="#2f80a8" fill-rule="nonzero"/>
                            <use xlink:href="#gA5BE1F0074DD0F6DD9EDC3FD9EE8562F" x="37.74539999999999" y="0" fill="#2f80a8" fill-rule="nonzero"/>
                            <use xlink:href="#g30DF828CB9F7BB2530AE4B358D499BB" x="46.021799999999985" y="0" fill="#2f80a8" fill-rule="nonzero"/>
                            <use xlink:href="#gF45808ED56D4C9A2B99871C525B6B499" x="51.28859999999998" y="0" fill="#2f80a8" fill-rule="nonzero"/>
                            <use xlink:href="#g2F2DD794152BD7EC68607697E660BD55" x="57.14059999999998" y="0" fill="#2f80a8" fill-rule="nonzero"/>
                            <use xlink:href="#gD5F777430E54FB136E8D624FA7C5A2DC" x="63.588249999999974" y="0" fill="#2f80a8" fill-rule="nonzero"/>
                            <use xlink:href="#g1002E1207358CEC42281382EA0674BD9" x="68.25939999999997" y="0" fill="#2f80a8" fill-rule="nonzero"/>
                            <use xlink:href="#gA5BE1F0074DD0F6DD9EDC3FD9EE8562F" x="72.14679999999997" y="0" fill="#2f80a8" fill-rule="nonzero"/>
                            <use xlink:href="#gD5F777430E54FB136E8D624FA7C5A2DC" x="77.81069999999997" y="0" fill="#2f80a8" fill-rule="nonzero"/>
                            <use xlink:href="#gD8A0BA8E4A8A1F9DDEF5976D239FD6EA" x="82.48184999999997" y="0" fill="#2f80a8" fill-rule="nonzero"/>
                        </g>
                    </g>
                </g>
                <g class="typst-group">
                    <g>
                        <g class="typst-group">
                            <g>
                                <g class="typst-text" transform="matrix(1 0 0 -1 93.14114173228346 189.45714173228347)">
                                    <use xlink:href="#g25E979771521C3EE548B75F4F6396784" x="0" y="0" fill="#000000" fill-rule="nonzero"/>
                                    <use xlink:href="#g3158FC9B20398C3D022403A7F40F1938" x="3.0580000000000003" y="0" fill="#000000" fill-rule="nonzero"/>
                                </g>
                                <g class="typst-text" transform="matrix(1 0 0 -1 102.31514173228346 192.17414173228346)">
                                    <use xlink:href="#g91B22411A885B809DF842DF9FB261DDF" x="0" y="0" fill="#000000" fill-rule="nonzero"/>
                                </g>
                                <g class="typst-text" transform="matrix(1 0 0 -1 111.43829728783902 189.45714173228347)">
                                    <use xlink:href="#gDB53F8619B2DD91365F060A9A25D7401" x="0" y="0" fill="#000000" fill-rule="nonzero"/>
                                </g>
                                <g class="typst-text" transform="matrix(1 0 0 -1 123.05185284339457 189.45714173228347)">
                                    <use xlink:href="#g8EFC12D366EB7A90CD6C24992AD63AE3" x="0" y="0" fill="#000000" fill-rule="nonzero"/>
                                </g>
                                <g class="typst-text" transform="matrix(1 0 0 -1 131.14785284339456 185.46414173228345)">
                                    <use xlink:href="#gFFDE48D6CD0455D3C911B0F145DDA074" x="0" y="0" fill="#000000" fill-rule="nonzero"/>
                                </g>
                                <g class="typst-text" transform="matrix(1 0 0 -1 138.05829728783903 189.45714173228347)">
                                    <use xlink:href="#g5EB4D00C7AAC327EDE3722740A653847" x="0" y="0" fill="#000000" fill-rule="nonzero"/>
                                </g>
                                <g class="typst-text" transform="matrix(1 0 0 -1 143.56074173228345 189.45714173228347)">
                                    <use xlink:href="#g5C79B8CB4172B7B92B8F3FDDC549F5C" x="0" y="0" fill="#000000" fill-rule="nonzero"/>
                                </g>
                            </g>
                        </g>
                    </g>
                </g>
                <g class="typst-group">
                    <g>
                        <g class="typst-text" transform="matrix(1 0 0 -1 70.86614173228347 207.97014173228348)">
                            <use xlink:href="#g6C76CE86655F84C62F73E6051BDA0E63" x="0" y="0" fill="#000000" fill-rule="nonzero"/>
                        </g>
                    </g>
                </g>
            </g>
        </g>
    </g>
    <defs id="glyph">
        <symbol id="g9CCFFF0A26597831BDE5F8A20939EA6" overflow="visible">
            <path d="M 0 0m 5.775 -0.451 l 3.0689998 3.069 c 0.032999992 0.04399991 0.055000305 0.08800006 0.055000305 0.13199997 c 0 0.04399991 -0.022000313 0.08800006 -0.055000305 0.13199997 l -3.0689998 3.0689998 c -0.0880003 0.07700014 -0.17600012 0.07700014 -0.26399994 0 l -3.0800002 -3.0689998 c -0.08800006 -0.08800006 -0.08800006 -0.17599988 0 -0.26399994 l 3.0800002 -3.069 c 0.08799982 -0.07699999 0.17599964 -0.07699999 0.26399994 0 Z "/>
        </symbol>
        <symbol id="gB036BE318FAA4AD8D57F0564B0D0EA8B" overflow="visible">
            <path d="M 0 0m 2.53 0.814 v 2.8600001 h 0.93499994 c 0.49500012 0 0.8030002 -0.08800006 0.9350002 -0.25300002 c 0.13199997 -0.16499996 0.19799995 -0.50600004 0.19799995 -1.023 h 0.36299992 v 2.97 h -0.36299992 c 0 -0.5170002 -0.065999985 -0.8470001 -0.19799995 -1.0120001 c -0.13199997 -0.16499996 -0.44000006 -0.25299978 -0.9350002 -0.25299978 h -0.93499994 v 2.5629997 c 0 0.3959999 0.065999985 0.38500023 0.49500012 0.38500023 h 1.3969998 c 0.7919998 0 1.3200002 -0.15400028 1.5950003 -0.47300005 c 0.35199976 -0.4289999 0.3959999 -0.8250003 0.4949999 -1.6280003 h 0.36299992 l -0.31900024 2.5300002 h -6.193 v -0.4289999 h 0.308 c 0.385 0 0.61599994 -0.022000313 0.69299996 -0.07700014 c 0.07700002 -0.05499983 0.12100005 -0.1869998 0.12100005 -0.38500023 v -5.698 c 0 -0.19799995 -0.04400003 -0.32999998 -0.12100005 -0.385 c -0.07700002 -0.054999977 -0.30799997 -0.07699999 -0.69299996 -0.07699999 h -0.308 v -0.429 h 6.347 l 0.47300005 2.893 h -0.36299992 c -0.09899998 -0.6049998 -0.19800043 -1.0669999 -0.31900024 -1.3969998 c -0.12099981 -0.33000004 -0.34100008 -0.59400004 -0.671 -0.80300003 c -0.2750001 -0.176 -0.72599983 -0.26400003 -1.3639998 -0.26400003 h -1.441 c -0.42900014 0 -0.49500012 -0.011000007 -0.49500012 0.38500002 Z "/>
        </symbol>
        <symbol id="g86B9164A7C25BA07720B571C0FC81FA5" overflow="visible">
            <path d="M 0 0m 3.454 4.5429997 c 0.4949999 0 0.74800014 -0.38499975 0.74800014 -1.1659997 v -2.5080001 c 0 -0.20900005 -0.032999992 -0.34100002 -0.11000013 -0.38500002 c -0.07700014 -0.044 -0.319 -0.066000015 -0.7260001 -0.066000015 v -0.41799998 l 1.2650001 0.033 l 1.2539997 -0.033 v 0.41799998 c -0.35199976 0 -0.5829997 0.011000007 -0.69299984 0.04400003 c -0.11000013 0.032999992 -0.1539998 0.110000014 -0.1539998 0.24199998 v 2.057 c 0 0.51699996 -0.011000156 0.8800001 -0.04400015 1.089 c -0.11000013 0.671 -0.605 1.0120001 -1.474 1.0120001 c -0.6930001 0 -1.21 -0.32999992 -1.551 -0.99 v 0.99 l -1.617 -0.12099981 v -0.41800022 c 0.39600003 0 0.638 -0.032999992 0.72599995 -0.09899998 c 0.08800006 -0.065999985 0.12100005 -0.20900011 0.12100005 -0.4619999 v -2.8930001 c 0 -0.20900005 -0.04400003 -0.34100002 -0.12100005 -0.38500002 c -0.0769999 -0.044 -0.31899995 -0.066000015 -0.72599995 -0.066000015 v -0.41799998 l 1.265 0.033 l 1.2540001 -0.033 v 0.41799998 c -0.40700006 0 -0.638 0.022000015 -0.71500015 0.066000015 c -0.0769999 0.044 -0.12099981 0.17599997 -0.12099981 0.38500002 v 1.98 c 0 0.89100003 0.5609999 1.6939998 1.4189999 1.6939998 Z "/>
        </symbol>
        <symbol id="g1D62568393B551C8D8CE89DE806E4B6F" overflow="visible">
            <path d="M 0 0m 3.652 1.386 v 0.65999997 h -0.352 v -0.638 c 0 -0.55 -0.19799995 -1.166 -0.6819999 -1.166 c -0.45099998 0 -0.671 0.374 -0.671 1.122 v 2.981 h 1.529 v 0.41800022 h -1.529 v 2.0019999 h -0.352 c -0.011000037 -0.36299992 -0.04400003 -0.6819997 -0.12100005 -0.96799994 c -0.18700004 -0.72599983 -0.616 -1.0999999 -1.265 -1.1329999 v -0.31900024 h 0.913 v -2.9589996 c 0 -0.64900005 0.19799995 -1.067 0.58300006 -1.276 c 0.29700005 -0.154 0.5719999 -0.231 0.847 -0.231 c 0.72599983 0 1.0999999 0.726 1.0999999 1.5070001 Z "/>
        </symbol>
        <symbol id="g25E979771521C3EE548B75F4F6396784" overflow="visible">
            <path d="M 0 0m 2.134 6.611 c 0 0.32999992 -0.2750001 0.6159997 -0.605 0.6159997 c -0.33000004 0 -0.61600006 -0.28599977 -0.61600006 -0.6159997 c 0 -0.32999992 0.27499998 -0.62699986 0.605 -0.62699986 c 0.34099996 0 0.61600006 0.28599977 0.61600006 0.62699986 Z m -0.5610001 -6.578 l 1.144 -0.033 v 0.429 c -0.36299992 0 -0.58299994 0.022000015 -0.6489999 0.066000015 c -0.065999985 0.04399997 -0.08800006 0.16499996 -0.08800006 0.36299998 v 4.037 l -1.573 -0.13199997 v -0.41800022 c 0.36299998 0 0.59400004 -0.032999992 0.67099994 -0.08799982 c 0.07700002 -0.05499983 0.110000014 -0.20900011 0.110000014 -0.4619999 v -2.926 c 0 -0.20900005 -0.032999992 -0.34100002 -0.110000014 -0.38500002 c -0.0769999 -0.044 -0.31899995 -0.055000007 -0.7149999 -0.055000007 v -0.429 Z "/>
        </symbol>
        <symbol id="g825B57DE027EE57C372F9A081EF8A0E1" overflow="visible">
            <path d="M 0 0m 4.004 4.158 c 0 0.4289999 -0.4070003 0.704 -0.8360002 0.704 c -0.5610001 0 -0.99 -0.32999992 -1.276 -1.0009999 v 1.0009999 l -1.584 -0.12099981 v -0.41800022 c 0.38500002 0 0.61600006 -0.032999992 0.704 -0.09899998 c 0.08800006 -0.065999985 0.13200009 -0.20900011 0.13200009 -0.4619999 v -2.8930001 c 0 -0.20900005 -0.03300011 -0.34100002 -0.110000014 -0.38500002 c -0.07700002 -0.044 -0.31900007 -0.066000015 -0.7260001 -0.066000015 v -0.41799998 l 1.265 0.033 c 0.46200013 0.011 0.93499994 0 1.408 -0.033 v 0.41799998 h -0.26399994 c -0.36299992 0 -0.5940001 0.033000022 -0.671 0.088 c -0.07700002 0.055000007 -0.110000014 0.18700004 -0.110000014 0.385 v 1.661 c 0 0.47300005 0.08799994 0.90199995 0.2529999 1.2649999 c 0.22000003 0.47300005 0.53900003 0.71500015 0.9680002 0.72599983 c -0.11000013 -0.10999966 -0.16499996 -0.24199963 -0.16499996 -0.3959999 c 0 -0.34099984 0.16499996 -0.5059998 0.5059998 -0.5059998 c 0.29700017 0 0.5060003 0.23099995 0.5060003 0.51699996 Z "/>
        </symbol>
        <symbol id="gBFA28B44E7CFB0C99CA80F38E352C676" overflow="visible">
            <path d="M 0 0m 4.565 2.761 c 0 1.2650001 -0.737 2.167 -1.9690001 2.167 c -0.65999997 0 -1.2099999 -0.25299978 -1.661 -0.77 c -0.41799998 -0.48399997 -0.627 -1.0669999 -0.627 -1.7379999 c 0 -0.6930001 0.23099998 -1.276 0.6930001 -1.7820001 c 0.4619999 -0.50600004 1.034 -0.759 1.716 -0.759 c 0.62699986 0 1.1110001 0.22 1.441 0.649 c 0.2750001 0.36299998 0.40700006 0.627 0.40700006 0.803 c 0 0.110000014 -0.065999985 0.16500008 -0.18700027 0.16500008 c -0.08799982 0 -0.14299965 -0.055000067 -0.17599964 -0.17600012 c -0.2420001 -0.72599995 -0.71500015 -1.089 -1.4190001 -1.089 c -0.4949999 0 -0.88 0.231 -1.177 0.704 c -0.20899999 0.34100002 -0.30799997 0.858 -0.319 1.562 h 2.97 c 0.2420001 0 0.3080001 0.022000074 0.3080001 0.26399994 Z m -0.9790001 1.0780001 c 0.12100005 -0.36299992 0.17600012 -0.7149999 0.17600012 -1.0339999 h -2.4640002 c 0.032999992 0.72599983 0.22000003 1.221 0.5500001 1.4739997 c 0.27499986 0.22000027 0.51699996 0.3300004 0.7479999 0.3300004 c 0.49500012 0 0.82500005 -0.25300026 0.99 -0.7700002 Z "/>
        </symbol>
        <symbol id="g1D42D595C156D9760073829CA35E7046" overflow="visible">
            <path d="M 0 0m 6.413 0.033 l 1.474 -0.033 v 0.429 h -0.2420001 c -0.2750001 0 -0.4619999 0.011000007 -0.53900003 0.033000022 c -0.16499996 0.055000007 -0.2750001 0.176 -0.34100008 0.36299998 l -2.354 6.809 c -0.043999672 0.14300013 -0.12099981 0.2420001 -0.28599977 0.2420001 c -0.14300013 0 -0.2420001 -0.07700014 -0.29699993 -0.2420001 l -2.255 -6.512 c -0.15399992 -0.45099998 -0.561 -0.69299996 -1.221 -0.704 v -0.41799998 l 1.155 0.033 l 1.287 -0.033 v 0.429 c -0.53900003 0 -0.8139999 0.16499999 -0.8139999 0.50600004 c 0 0.07699996 0.010999918 0.12099999 0.022000074 0.14299995 l 0.4949999 1.397 h 2.6179998 l 0.56100035 -1.6279999 c 0.021999836 -0.065999985 0.032999992 -0.110000014 0.032999992 -0.143 c 0 -0.18699998 -0.29699993 -0.275 -0.90199995 -0.275 v -0.429 c 0.4619999 0.033 1.0009999 0.044 1.606 0.033 Z m -2.618 6.226 l 1.1659999 -3.3549998 h -2.321 Z "/>
        </symbol>
        <symbol id="g651F50EBD4BCE47BCDC2129F2ADBA754" overflow="visible">
            <path d="M 0 0m 5.258 3.938 c 0.77 0.1980002 1.606 0.8139999 1.606 1.694 c 0 0.5830002 -0.2750001 1.0450001 -0.8249998 1.408 c -0.47300005 0.31899977 -1.0230002 0.47300005 -1.6280003 0.47300005 h -4.015 v -0.4289999 h 0.308 c 0.385 0 0.61599994 -0.032999992 0.69299996 -0.0880003 c 0.07700002 -0.05499983 0.12100005 -0.17599964 0.12100005 -0.37400007 v -5.731 c 0 -0.19799995 -0.04400003 -0.32999998 -0.12100005 -0.385 c -0.07700002 -0.054999977 -0.30799997 -0.07699999 -0.69299996 -0.07699999 h -0.308 v -0.429 h 4.301 c 0.62699986 0 1.1879997 0.176 1.6719999 0.528 c 0.5279999 0.385 0.7919998 0.89100003 0.7919998 1.5070001 c 0 1.023 -0.96799994 1.727 -1.9029999 1.9029999 Z m 0.47300005 1.694 c 0 -0.9239998 -0.77 -1.5619998 -1.6939998 -1.5619998 h -1.5290003 v 2.6289997 c 0 0.3959999 0.055000067 0.38500023 0.4840002 0.38500023 h 1.342 c 0.81399965 0 1.3969998 -0.638 1.3969998 -1.4520001 Z m 0.25300026 -3.586 v -0.286 c -0.022000313 -0.25300002 -0.16500044 -0.53900003 -0.44000006 -0.83599997 c -0.28600025 -0.33000004 -0.68200016 -0.49500003 -1.1990004 -0.49500003 h -1.3529997 c -0.42900014 0 -0.4840002 -0.011000007 -0.4840002 0.38500002 v 2.926 h 1.9910002 c 0.8909998 0 1.4850001 -0.77 1.4850001 -1.694 Z "/>
        </symbol>
        <symbol id="g8EFC12D366EB7A90CD6C24992AD63AE3" overflow="visible">
            <path d="M 0 0m 6.721 5.511 c 0 0.62699986 -0.34100008 1.1329999 -1.0120001 1.5179996 c -0.56100035 0.31900024 -1.1880002 0.4840002 -1.8700001 0.4840002 h -3.454 v -0.4289999 h 0.30800003 c 0.38499993 0 0.616 -0.032999992 0.693 -0.0880003 c 0.0769999 -0.05499983 0.12099993 -0.17599964 0.12099993 -0.37400007 v -5.731 c 0 -0.19799995 -0.04400003 -0.32999998 -0.12099993 -0.385 c -0.07700002 -0.054999977 -0.3080001 -0.088 -0.693 -0.088 h -0.30800003 v -0.429 c 0.297 0.033 0.83599997 0.044 1.628 0.044 c 0.803 0 1.342 -0.011 1.6389999 -0.044 v 0.429 h -0.3080001 c -0.385 0 -0.61599994 0.033000022 -0.69299984 0.088 c -0.07700014 0.055000007 -0.12100005 0.18700004 -0.12100005 0.385 v 2.7059999 h 1.21 c 0.70399976 0 1.221 -0.41799998 1.3419998 -1.0119998 c 0.022000313 -0.12100005 0.032999992 -0.385 0.032999992 -0.7700001 c 0 -0.29699993 0.011000156 -0.51699996 0.022000313 -0.6489999 c 0.065999985 -0.924 0.86899996 -1.408 1.8369999 -1.408 c 0.41800022 0 0.71500015 0.176 0.8800001 0.517 c 0.13199997 0.253 0.19799995 0.49499997 0.19799995 0.7260001 c 0 0.143 -0.065999985 0.21999991 -0.18700027 0.21999991 c -0.09899998 0 -0.16499996 -0.065999985 -0.17599964 -0.20899999 c -0.055000305 -0.61599994 -0.28600025 -0.92399997 -0.671 -0.92399997 c -0.38500023 0 -0.5170002 0.363 -0.5830002 0.682 c -0.065999985 0.37400007 -0.11000013 0.65999997 -0.14300013 0.847 l -0.14299965 0.8690001 c -0.16499996 0.572 -0.572 0.99 -1.2210002 1.243 c 0.83599997 0.24199986 1.7930002 0.83599997 1.7930002 1.7820001 Z m -1.5510001 1.0889997 c 0.23099995 -0.20900011 0.35199976 -0.572 0.35199976 -1.0889997 c 0 -0.41800022 -0.10999966 -0.77 -0.31899977 -1.0670004 c -0.25300026 -0.3409996 -0.74800014 -0.5169997 -1.507 -0.5169997 h -1.1660001 v 2.7719998 c 0 0.23099995 0.065999985 0.35200024 0.19799995 0.36299992 c 0.07700014 0.011000156 0.286 0.022000313 0.638 0.022000313 c 0.8690002 0 1.3199999 -0.032999992 1.8040001 -0.4840002 Z "/>
        </symbol>
        <symbol id="g27D0FD828B836FBA22CC50BA9BB47368" overflow="visible">
            <path d="M 0 0m 7.678 5.104 h -6.798 c -0.176 0 -0.264 -0.0880003 -0.264 -0.26399994 c 0 -0.16499996 0.088 -0.25300026 0.264 -0.25300026 h 6.798 c 0.17600012 0 0.26399994 0.0880003 0.26399994 0.25300026 c 0 0.14299965 -0.12099981 0.26399994 -0.26399994 0.26399994 Z m 0 -2.0900002 h -6.798 c -0.176 0 -0.264 -0.08800006 -0.264 -0.26399994 c 0 -0.17600012 0.088 -0.26399994 0.264 -0.26399994 h 6.798 c 0.17600012 0 0.26399994 0.08799982 0.26399994 0.26399994 c 0 0.13199997 -0.12099981 0.26399994 -0.26399994 0.26399994 Z m 0 -2.1009998 h -6.798 c -0.176 0 -0.264 -0.088 -0.264 -0.25300002 c 0 -0.17599997 0.088 -0.26399997 0.264 -0.26399997 h 6.798 c 0.17600012 0 0.26399994 0.088 0.26399994 0.26399997 c 0 0.13200003 -0.12099981 0.25300002 -0.26399994 0.25300002 Z "/>
        </symbol>
        <symbol id="g99D92498F09437C8B675035FEDCDF3F8" overflow="visible">
            <path d="M 0 0m 1.5466 6.74025 c -0.37619996 0 -0.93005 0.010449886 -1.34805 0.020899773 c -0.0627 -0.062699795 -0.0627 -0.2821498 0 -0.34485006 c 0.7315 -0.03134966 0.90915 -0.083600044 0.90915 -0.95094967 v -4.19045 c 0 -0.86735 -0.17764997 -0.91959995 -0.90915 -0.95094997 c -0.0627 -0.0627 -0.0627 -0.28215 0 -0.34485 c 0.40755004 0.01045 0.96140003 0.0209 1.3585 0.0209 c 0.38664997 0 0.8255501 -0.0209 1.9019 -0.0209 c 1.4734497 0 3.41715 0.6688 3.41715 3.2395 c 0 1.9437001 -1.5988503 3.5425498 -3.6052501 3.5425498 c -0.74195004 0 -1.3167 -0.020899773 -1.72425 -0.020899773 Z m 0.44935 -5.86245 v 5.016 c 0 0.3657503 0.36575007 0.51205015 0.8778 0.51205015 c 2.2572 0 2.99915 -1.8287501 2.99915 -3.43805 c 0 -2.1109 -1.2644501 -2.6334 -2.7379 -2.6334 c -1.0241001 0 -1.13905 0.20899999 -1.13905 0.5434 Z "/>
        </symbol>
        <symbol id="gD5F777430E54FB136E8D624FA7C5A2DC" overflow="visible">
            <path d="M 0 0m 4.0337 0.97185 c -0.3866501 -0.39709997 -0.6897001 -0.56429994 -1.2958 -0.56429994 c -0.37619996 0 -0.8151001 0.21944997 -1.13905 0.75240004 c -0.20899999 0.34484994 -0.33440006 0.82554996 -0.33440006 1.4316499 l 2.7796998 -0.020900011 c 0.12540007 0 0.19855022 0.06270003 0.19855022 0.17764997 c 0 0.8778 -0.31350017 1.8183 -1.7660501 1.8183 c -0.90915 0 -2.09 -0.86734986 -2.09 -2.45575 c 0 -0.58519995 0.14629999 -1.1494999 0.49115 -1.5465999 c 0.35529995 -0.41799998 0.84645 -0.6688 1.59885 -0.6688 c 0.79419994 0 1.3585 0.36574998 1.7765 0.90915 c -0.031350136 0.104499996 -0.09404993 0.15674996 -0.21945 0.16719997 Z m -2.7379 1.97505 c 0.19854999 1.18085 0.93005013 1.2749 1.18085 1.2749 c 0.39709997 0 0.86734986 -0.21945 0.86734986 -1.09725 c 0 -0.09404993 -0.041799784 -0.14629984 -0.15674996 -0.14629984 Z "/>
        </symbol>
        <symbol id="gDF8FA06D336266B8BB98E59BCBD8BECC" overflow="visible">
            <path d="M 0 0m 4.9115 1.2749 v 2.20495 c 0 0.40754986 0.041800022 1.07635 0.041800022 1.07635 c 0 0.041800022 -0.062699795 0.062699795 -0.10449982 0.062699795 c -0.3135004 -0.12540007 -0.61654997 -0.13584995 -0.9823003 -0.13584995 h -2.05865 v 0.5956502 c 0 0.9927497 0.35530007 1.8600998 1.0659 1.8600998 c 0.44935012 0 0.80465007 -0.1149497 0.8882501 -0.5433998 c 0.10449982 -0.52250004 0.3239498 -0.67925024 0.6479001 -0.67925024 c 0.22989988 0 0.44934988 0.20900011 0.44934988 0.4284501 c 0 0.6479001 -0.8882501 1.1494999 -1.8601 1.1494999 c -0.48070002 0 -1.0554501 -0.18809986 -1.4839001 -0.68969965 c -0.4389 -0.51205015 -0.53295 -1.1495004 -0.53295 -1.9646001 v -0.1567502 h -0.51205 c -0.18810001 0 -0.24035001 -0.12540007 -0.24035001 -0.20900011 v -0.13584995 c 0 -0.05224991 0.010449991 -0.062699795 0.052249998 -0.062699795 h 0.70015 v -2.8006 c 0 -0.86735 -0.11495 -0.90915 -0.67925 -0.95094997 c -0.06270002 -0.0627 -0.06270002 -0.28215 0 -0.34485 c 0.35529998 0.01045 0.7314999 0.0209 1.09725 0.0209 c 0.36574996 0 0.83599997 -0.01045 1.18085 -0.0209 c 0.06270003 0.0627 0.06270003 0.28215 0 0.34485 c -0.6688001 0.041799992 -0.77330005 0.083600014 -0.77330005 0.95094997 v 2.8006 h 1.87055 c 0.3239498 0 0.40754986 -0.20900011 0.40754986 -0.74195004 v -2.05865 c 0 -0.86735 -0.12539983 -0.90915 -0.70015 -0.95094997 c -0.062699795 -0.0627 -0.062699795 -0.28215 0 -0.34485 c 0.36575007 0.01045 0.74195004 0.0209 1.1181502 0.0209 c 0.36574984 0 0.7732997 -0.01045 1.1599498 -0.0209 c 0.06270027 0.0627 0.06270027 0.28215 0 0.34485 c -0.63744974 0.041799992 -0.7523999 0.083600014 -0.7523999 0.95094997 Z "/>
        </symbol>
        <symbol id="gA5BE1F0074DD0F6DD9EDC3FD9EE8562F" overflow="visible">
            <path d="M 0 0m 1.9228 3.7411 c -0.062699914 -0.07315016 -0.12539995 -0.09405017 -0.12539995 0 c -0.0104500055 0.28215003 -0.031350017 0.6896999 -0.083600044 0.7941997 c -0.020900011 0.052250385 -0.041800022 0.083600044 -0.12539995 0.083600044 c -0.29260004 -0.1149497 -0.56430006 -0.20899963 -1.28535 -0.30305004 c -0.020900011 -0.062699795 0 -0.22989988 0.020899981 -0.29259968 c 0.5643 -0.052250147 0.67925006 -0.104500055 0.67925006 -0.71060014 v -2.03775 c 0 -0.8569 -0.104500055 -0.8987 -0.7315 -0.95094997 c -0.0627 -0.0627 -0.0627 -0.28215 0 -0.34485 c 0.31350002 0.01045 0.7315 0.0209 1.1495 0.0209 c 0.41799998 0 0.7314999 -0.01045 1.0449998 -0.0209 c 0.06270003 0.0627 0.06270003 0.28215 0 0.34485 c -0.5329499 0.052249998 -0.63744986 0.09404999 -0.63744986 0.95094997 v 1.7138 c 0 0.21945 0.09404993 0.34485006 0.1776501 0.4389 c 0.39709997 0.3866501 0.86734986 0.61654997 1.2749 0.61654997 c 0.20899987 0 0.42844987 -0.13584995 0.55384994 -0.37619996 c 0.104500055 -0.20899987 0.12540007 -0.4911499 0.12540007 -0.80464983 v -1.5884001 c 0 -0.8569 -0.104500055 -0.8987 -0.6479001 -0.95094997 c -0.05224991 -0.0627 -0.05224991 -0.28215 0 -0.34485 c 0.31349993 0.01045 0.6479001 0.0209 1.0659001 0.0209 c 0.41799974 0 0.79419994 -0.01045 1.1076999 -0.0209 c 0.05224991 0.0627 0.05224991 0.28215 0 0.34485 c -0.58519983 0.052249998 -0.70015 0.09404999 -0.70015 0.95094997 v 1.55705 c 0 0.57474995 -0.041800022 1.07635 -0.2821498 1.4003003 c -0.17764997 0.22989988 -0.50160027 0.35529995 -0.8673501 0.35529995 c -0.51205015 0 -1.09725 -0.13584995 -1.7138001 -0.8464501 Z "/>
        </symbol>
        <symbol id="g719363D0F368416E7AF1615E29BE82E1" overflow="visible">
            <path d="M 0 0m 1.89145 1.2749 v 2.07955 c 0 0.52250004 0.041799903 1.1913002 0.041799903 1.1913002 c 0 0.041800022 -0.05224991 0.07314968 -0.13584995 0.07314968 c -0.29260004 -0.1149497 -0.7106 -0.20899963 -1.43165 -0.30305004 c -0.020899981 -0.062699795 0 -0.22989988 0.020900011 -0.29259968 c 0.57474995 -0.052250147 0.67925 -0.11495018 0.67925 -0.71060014 v -2.03775 c 0 -0.86735 -0.11495 -0.8987 -0.7524 -0.95094997 c -0.06269997 -0.0627 -0.06269997 -0.28215 0 -0.34485 c 0.34485 0.01045 0.7524 0.0209 1.1703999 0.0209 c 0.41799998 0 0.8151001 -0.01045 1.1599501 -0.0209 c 0.062699795 0.0627 0.062699795 0.28215 0 0.34485 c -0.63745 0.041799992 -0.75240004 0.083600014 -0.75240004 0.95094997 Z m -0.95095 4.98465 c 0 -0.2716999 0.2508 -0.5434003 0.5016 -0.5434003 c 0.29259992 0 0.54339993 0.28215027 0.54339993 0.50160027 c 0 0.25079966 -0.21945 0.5433998 -0.5016 0.5433998 c -0.2508 0 -0.54339993 -0.25080013 -0.54339993 -0.5015998 Z "/>
        </symbol>
        <symbol id="gF1EA6F28BF3D8ABEB5290BAC56137E8F" overflow="visible">
            <path d="M 0 0m 0.44935 4.48305 c -0.14629999 0 -0.18810001 -0.12540007 -0.18810001 -0.20900011 v -0.13584995 c 0 -0.05224991 0.0104500055 -0.062699795 0.052249998 -0.062699795 h 0.61655 v -3.14545 c 0 -0.74195004 0.32394993 -1.03455 0.80464995 -1.03455 c 0.48070002 0 1.0032 0.2299 1.4107499 0.6897 c -0.020900011 0.104499996 -0.083599806 0.16719997 -0.18809986 0.17764997 c -0.27170014 -0.20899999 -0.5852001 -0.29259998 -0.8569 -0.29259998 c -0.28215003 0 -0.34485006 0.3135 -0.34485006 0.96140003 v 2.6438498 h 1.0868001 c 0.10449982 0 0.2507999 0.041800022 0.2507999 0.13584995 v 0.20900011 c 0 0.041800022 -0.031349897 0.062699795 -0.083600044 0.062699795 h -1.254 v 0.40755033 c 0 0.67924976 0.041800022 1.09725 0.041800022 1.09725 c 0 0.062699795 -0.031350017 0.09404993 -0.083600044 0.09404993 c -0.041800022 0 -0.13584995 -0.041800022 -0.2299 -0.09404993 c -0.11494994 -0.06270027 -0.21945 -0.11495018 -0.35529995 -0.14630032 c -0.12539995 -0.041800022 -0.2299 -0.07314968 -0.2299 -0.14629984 c 0 -0.12540007 0.031350017 -0.05224991 0.031350017 -1.2122002 Z "/>
        </symbol>
        <symbol id="g30DF828CB9F7BB2530AE4B358D499BB" overflow="visible">
            <path d="M 0 0m 0.42845 2.14225 c 0 -1.0659001 0.7106 -2.24675 2.1945 -2.24675 c 0.6687999 0 1.1808498 0.24035 1.53615 0.58519995 c 0.47025013 0.45980003 0.67924976 1.11815 0.67924976 1.7556 c 0 1.0868001 -0.5956497 2.3512502 -2.1944997 2.3512502 c -0.6897001 0 -1.2540001 -0.28215027 -1.64065 -0.73150015 c -0.37620008 -0.44935012 -0.57475007 -1.05545 -0.57475007 -1.7138 Z m 2.05865 2.0795498 c 0.8987 0 1.4525502 -0.81509995 1.4525502 -2.3199 c 0 -1.3167 -0.67925 -1.6406499 -1.1704001 -1.6406499 c -1.0868 0 -1.4420999 1.3167 -1.4420999 2.12135 c 0 0.9091499 0.21945 1.8391998 1.1599499 1.8391998 Z "/>
        </symbol>
        <symbol id="gF45808ED56D4C9A2B99871C525B6B499" overflow="visible">
            <path d="M 0 0m 1.82875 1.2749 v 2.8006 h 0.97185004 c 0.09404993 0 0.24035001 0.041800022 0.24035001 0.13584995 v 0.20900011 c 0 0.041800022 -0.031350136 0.062699795 -0.083600044 0.062699795 h -1.1286 v 0.5956502 c 0 1.6092997 0.4806999 1.8600998 0.82554996 1.8600998 c 0.31349993 0 0.48070002 -0.12540007 0.6270001 -0.4911499 c 0.083599806 -0.18809986 0.19854999 -0.33440018 0.41799998 -0.33440018 c 0.17764997 0 0.42844987 0.21945 0.42844987 0.4284501 c 0 0.17764997 -0.1149497 0.3657503 -0.33439994 0.5329499 c -0.2716999 0.18810034 -0.54340005 0.21945 -0.9405 0.21945 c -0.8778 0 -1.8496499 -0.7628498 -1.8496499 -2.3930497 v -0.41800022 h -0.53295004 c -0.18810001 0 -0.24035001 -0.12540007 -0.24035001 -0.20900011 v -0.13584995 c 0 -0.05224991 0.010449991 -0.062699795 0.052249998 -0.062699795 h 0.72105 v -2.8006 c 0 -0.86735 -0.16720009 -0.90915 -0.7315 -0.95094997 c -0.0627 -0.0627 -0.0627 -0.28215 0 -0.34485 c 0.36574998 0.01045 0.7315 0.0209 1.1495 0.0209 c 0.41799998 0 0.9196 -0.01045 1.2853498 -0.0209 c 0.06270003 0.0627 0.06270003 0.28215 0 0.34485 c -0.81509984 0.041799992 -0.87779987 0.083600014 -0.87779987 0.95094997 Z "/>
        </symbol>
        <symbol id="g7BCC4A2BCB613C64E4278339F1F7DD82" overflow="visible">
            <path d="M 0 0m 2.93645 3.77245 h -0.95095 v 1.881 c 0 0.45979977 0.12539995 0.6687999 0.6897 0.6687999 h 0.78375006 c 0.78375006 0 0.95095015 -0.41799974 1.18085 -1.13905 c 0.12540007 -0.020899773 0.24034977 0 0.34485006 0.05224991 c -0.052250385 0.4284501 -0.20900011 1.4316502 -0.22990036 1.5152502 c 0 0.020899773 -0.010449886 0.031350136 -0.041800022 0.031350136 c -0.17764997 -0.031350136 -0.26124954 -0.041800022 -0.5120497 -0.041800022 h -2.66475 c -0.31349993 0 -0.93004996 0.010449886 -1.34805 0.020899773 c -0.06269999 -0.062699795 -0.06269999 -0.2821498 0 -0.34485006 c 0.7315 -0.03134966 0.90915 -0.083600044 0.90915 -0.95094967 v -4.19045 c 0 -0.86735 -0.17764997 -0.91959995 -0.90915 -0.95094997 c -0.06269999 -0.0627 -0.06269999 -0.28215 0 -0.34485 c 0.38665003 0.01045 1.0136501 0.0209 1.3585 0.0209 h 2.2467499 c 0.5016 0 1.3376 -0.0209 1.3376 -0.0209 c 0.14629984 0.52250004 0.30305004 1.2122 0.3866501 1.74515 c -0.104500294 0.06270003 -0.22989988 0.083600044 -0.3657503 0.052250028 c -0.20899963 -0.75240004 -0.57474995 -1.36895 -1.3689497 -1.36895 h -1.2122002 c -0.4389 0 -0.58519995 0.1672 -0.58519995 0.65835 v 2.3094501 h 0.95095 c 0.8882499 0 0.9196 -0.24035001 0.9509499 -0.7105999 c 0.06270003 -0.06270003 0.28215003 -0.06270003 0.3448503 0 c -0.010450363 0.2716999 -0.02090025 0.5642998 -0.02090025 0.9195998 c 0 0.29260015 0.010449886 0.64790034 0.02090025 0.8987 c -0.06270027 0.06270027 -0.28215027 0.06270027 -0.3448503 0 c -0.031349897 -0.57474995 -0.06270003 -0.7105999 -0.9509499 -0.7105999 Z "/>
        </symbol>
        <symbol id="g1002E1207358CEC42281382EA0674BD9" overflow="visible">
            <path d="M 0 0m 1.8392 3.7411 c -0.020900011 0.41799998 -0.031350017 0.6896999 -0.083600044 0.7941997 c -0.020900011 0.052250385 -0.041800022 0.083600044 -0.12539995 0.083600044 c -0.29260004 -0.1149497 -0.56430006 -0.20899963 -1.2853501 -0.30305004 c -0.020900011 -0.062699795 0 -0.22989988 0.020899981 -0.29259968 c 0.56430006 -0.052250147 0.67925 -0.104500055 0.67925 -0.71060014 v -2.03775 c 0 -0.86735 -0.12539995 -0.90915 -0.77329993 -0.95094997 c -0.0627 -0.0627 -0.0627 -0.28215 0 -0.34485 c 0.36574998 0.01045 0.77329993 0.0209 1.1912999 0.0209 c 0.4180001 0 0.8987001 -0.01045 1.26445 -0.0209 c 0.06270003 0.0627 0.06270003 0.28215 0 0.34485 c -0.7314999 0.052249998 -0.85689986 0.083600014 -0.85689986 0.95094997 v 1.4525499 c 0 0.27170014 0.12539995 0.51205015 0.2508 0.70015 c 0.11494994 0.16720009 0.35529995 0.51205015 0.48070002 0.51205015 c 0.09404993 0 0.18809986 -0.020900011 0.2716999 -0.13585019 c 0.07314992 -0.10449982 0.19854999 -0.24034977 0.37619996 -0.24034977 c 0.25080013 0 0.49115014 0.26124978 0.49115014 0.5224998 c 0 0.19855022 -0.1881001 0.50160027 -0.6270001 0.50160027 c -0.4911499 0 -0.9196 -0.45980024 -1.15995 -0.8673501 c -0.062699914 -0.11495018 -0.11494994 -0.031350136 -0.11494994 0.020900011 Z "/>
        </symbol>
        <symbol id="gC9A187A9B093CE466120778A6B56427" overflow="visible">
            <path d="M 0 0m 2.915 7.755 c -0.979 0 -1.7049999 -0.7920003 -1.7049999 -1.7709999 v -1.21 h -0.847 v -0.41800022 h 0.847 v -3.487 c 0 -0.20900005 -0.032999992 -0.34100002 -0.110000014 -0.38500002 c -0.07700002 -0.044 -0.319 -0.055000007 -0.726 -0.055000007 v -0.429 l 1.2649999 0.033 c 0.46200013 0.011 0.93499994 0 1.408 -0.033 v 0.429 h -0.26399994 c -0.36299992 0 -0.5940001 0.022000015 -0.671 0.07699999 c -0.0769999 0.055000007 -0.109999895 0.18700004 -0.109999895 0.385 v 3.465 h 1.2319999 v 0.41800022 h -1.265 v 1.2209997 c 0 0.65999985 0.34099996 1.4300003 0.946 1.4300003 c 0.08800006 0 0.16499996 -0.011000156 0.2420001 -0.032999992 c -0.16499996 -0.0880003 -0.25300002 -0.2420001 -0.25300002 -0.4510002 c 0 -0.34100008 0.16499996 -0.5170002 0.50600004 -0.5170002 c 0.34099984 0 0.51699996 0.17600012 0.51699996 0.52800035 c 0 0.4949999 -0.51699996 0.803 -1.0120001 0.803 Z "/>
        </symbol>
        <symbol id="g4FB01F9F857AF4B1654618D9B4C6D6C9" overflow="visible">
            <path d="M 0 0m 1.584 0.033 l 1.2210001 -0.033 v 0.429 c -0.39600015 0 -0.638 0.011000007 -0.71500015 0.055000007 c -0.0769999 0.044 -0.109999895 0.17599997 -0.109999895 0.38500002 v 6.765 l -1.617 -0.12099981 v -0.41800022 c 0.38500002 0 0.627 -0.032999992 0.704 -0.09899998 c 0.07700002 -0.065999985 0.12099993 -0.21999979 0.12099993 -0.47300005 v -5.654 c 0 -0.20900005 -0.032999992 -0.34100002 -0.110000014 -0.38500002 c -0.0769999 -0.044 -0.31899995 -0.055000007 -0.7149999 -0.055000007 v -0.429 Z "/>
        </symbol>
        <symbol id="gE7E782F4A4EF0170E26DA1C6C27BD8F4" overflow="visible">
            <path d="M 0 0m 4.598 0.033 c 0.25299978 0.011 0.6159997 0 1.0780001 -0.033 v 0.41799998 c -0.5830002 0 -0.803 0.011000007 -1.0339999 0.319 l -1.4300003 1.848 c 0.47300005 0.58299994 0.7920003 0.97899985 0.96799994 1.188 c 0.3080001 0.352 0.737 0.5389998 1.2980003 0.54999995 v 0.41800022 c -0.3080001 -0.022000313 -0.6160002 -0.032999992 -0.92400026 -0.032999992 c -0.40700006 0 -0.77 0.01099968 -1.089 0.032999992 v -0.41800022 c 0.20900011 -0.021999836 0.319 -0.12099981 0.319 -0.29699993 c 0 -0.09899998 -0.05499983 -0.22000003 -0.15400004 -0.352 l -0.6379998 -0.79200006 l -0.8140001 1.0450001 c -0.055000067 0.07700014 -0.08800006 0.13199997 -0.08800006 0.16499996 c 0 0.14300013 0.13199997 0.21999979 0.385 0.23099995 v 0.41800022 l -1.221 -0.032999992 c -0.28599995 -0.011000156 -0.63799995 0 -1.0669999 0.032999992 v -0.41800022 c 0.396 0 0.6489999 -0.032999992 0.75899994 -0.08799982 c 0.110000014 -0.055000305 0.286 -0.2420001 0.528 -0.5610001 l 1.0450001 -1.3640001 c -0.53900003 -0.69299996 -0.8690001 -1.111 -0.99 -1.254 c -0.352 -0.42900002 -0.81400007 -0.638 -1.3970001 -0.638 v -0.41799998 c 0.40699998 0.033 0.71500003 0.044 0.946 0.033 l 1.067 -0.033 v 0.41799998 c -0.20899999 0.033000022 -0.30799997 0.13200003 -0.30799997 0.297 c 0 0.04400003 0.011000037 0.09900004 0.032999992 0.15400004 c 0.065999985 0.14299995 0.36300004 0.517 0.8909999 1.144 l 0.79200006 -1.034 c 0.12100005 -0.15399998 0.18700004 -0.264 0.22000003 -0.32999998 c 0 -0.143 -0.13199997 -0.22 -0.3959999 -0.231 v -0.41799998 Z "/>
        </symbol>
        <symbol id="g60FF11D5EEDDBD5A3A8FC43CC590A975" overflow="visible">
            <path d="M 0 0m 4.268 3.894 c 0 -0.055000067 -0.022000313 -0.13199997 -0.065999985 -0.2420001 l -1.0560002 -2.651 l -1.1769999 2.915 c -0.04400003 0.09899998 -0.065999985 0.15400028 -0.065999985 0.16499996 c 0 0.16499996 0.20899999 0.2420001 0.627 0.2420001 v 0.41800022 l -1.232 -0.032999992 c -0.26399994 -0.011000156 -0.627 0 -1.089 0.032999992 v -0.41800022 c 0.616 0 0.71500003 0.021999836 0.86899996 -0.37400007 l 1.5619999 -3.839 c 0.055000067 -0.154 0.14300013 -0.231 0.26400018 -0.231 c 0.12100005 0 0.20899987 0.077 0.26399994 0.231 l 1.4189999 3.509 c 0.04400015 0.12100005 0.0880003 0.22000003 0.14300013 0.3080001 c 0.1539998 0.26399994 0.44000006 0.3959999 0.8579998 0.3959999 v 0.41800022 c -0.36299992 -0.032999992 -0.6489997 -0.04400015 -0.8579998 -0.032999992 l -0.9790001 0.032999992 v -0.41800022 c 0.31900024 -0.011000156 0.5170002 -0.14300013 0.5170002 -0.4289999 Z "/>
        </symbol>
        <symbol id="gD2F3AC582DA28D56AB62ACB7E8E88E42" overflow="visible">
            <path d="M 0 0m 3.498 -2.728 c 0.09899998 0 0.15400004 0.05499983 0.15400004 0.15400004 c 0 0.032999992 -0.022000074 0.0769999 -0.055000067 0.12099981 c -0.5719998 0.44000006 -1.0339999 1.1660001 -1.375 2.167 c -0.29699993 0.869 -0.45099986 1.727 -0.45099986 2.5740001 v 0.9239998 c 0 0.8470001 0.15399992 1.7049999 0.45099986 2.574 c 0.34100008 1.0010004 0.8030002 1.7270002 1.375 2.1670003 c 0.032999992 0.032999992 0.055000067 0.076999664 0.055000067 0.12100029 c 0 0.09899998 -0.055000067 0.15399933 -0.15400004 0.15399933 c -0.010999918 0 -0.04399991 -0.01099968 -0.0769999 -0.032999992 c -0.6600001 -0.50599957 -1.21 -1.2539997 -1.661 -2.2549996 c -0.42900002 -0.95700026 -0.64900005 -1.8590002 -0.64900005 -2.7280002 v -0.9239998 c 0 -0.8690001 0.22000003 -1.7710001 0.64900005 -2.7280002 c 0.45099998 -1.0009999 1.0009999 -1.7489998 1.661 -2.2549999 c 0.032999992 -0.022000074 0.065999985 -0.032999992 0.0769999 -0.032999992 Z "/>
        </symbol>
        <symbol id="gF78BEB212BD5AC1D6D4D4286EBDA6682" overflow="visible">
            <path d="M 0 0m 6.05 6.776 c 0 -0.09899998 -0.055000305 -0.20900011 -0.17600012 -0.32999992 l -3.3330002 -3.1790001 v 3.3549998 c 0 0.19800043 0.04400015 0.31900024 0.12100005 0.37400007 c 0.07700014 0.055000305 0.3080001 0.0880003 0.6930001 0.0880003 h 0.30799985 v 0.4289999 c -0.28599977 -0.021999836 -0.83599997 -0.032999992 -1.6499999 -0.032999992 c -0.814 0 -1.3640001 0.011000156 -1.65 0.032999992 v -0.4289999 h 0.308 c 0.385 0 0.61599994 -0.032999992 0.69299996 -0.0880003 c 0.07700002 -0.05499983 0.12100005 -0.17599964 0.12100005 -0.37400007 v -5.731 c 0 -0.19799995 -0.04400003 -0.32999998 -0.12100005 -0.385 c -0.07700002 -0.054999977 -0.30799997 -0.07699999 -0.69299996 -0.07699999 h -0.308 v -0.429 c 0.28599998 0.022 0.83599997 0.033 1.639 0.033 c 0.8249998 0 1.375 -0.011 1.6609998 -0.033 v 0.429 h -0.30799985 c -0.385 0 -0.61599994 0.022000015 -0.6930001 0.07699999 c -0.0769999 0.055000007 -0.12100005 0.18700004 -0.12100005 0.385 v 1.881 l 1.21 1.155 l 1.9359999 -2.871 c 0.09899998 -0.15399998 0.15400028 -0.27499998 0.15400028 -0.352 c 0 -0.18699998 -0.20900011 -0.275 -0.638 -0.275 v -0.429 c 0.47300005 0.033 1.0009999 0.044 1.5949998 0.033 l 1.2979999 -0.033 v 0.429 c -0.7149997 0 -0.84699965 0.066000015 -1.1549997 0.49500003 l -2.486 3.674 l 1.9359999 1.848 c 0.42900038 0.4289999 0.9460001 0.638 1.5510001 0.638 v 0.4289999 c -0.21999979 -0.021999836 -0.53900003 -0.032999992 -0.96799994 -0.032999992 c -0.671 0 -1.144 0.011000156 -1.4190001 0.032999992 v -0.4289999 c 0.26399994 0 0.49500036 -0.0880003 0.49500036 -0.3080001 Z "/>
        </symbol>
        <symbol id="g310303A7769E3646805F626E9CBB0554" overflow="visible">
            <path d="M 0 0m 0.858 -2.695 c 0.66 0.50600004 1.21 1.254 1.661 2.2549999 c 0.4289999 0.957 0.6489999 1.859 0.6489999 2.7280002 v 0.9239998 c 0 0.86899996 -0.22000003 1.7709999 -0.6489999 2.7280002 c -0.45099998 1.0009999 -1.001 1.7490001 -1.661 2.2549996 c -0.032999992 0.022000313 -0.065999985 0.032999992 -0.07699996 0.032999992 c -0.09900004 0 -0.15400004 -0.05499935 -0.15400004 -0.15399933 c 0 -0.044000626 0.022000015 -0.0880003 0.055000007 -0.12100029 c 0.57199997 -0.44000006 1.0339999 -1.1659999 1.375 -2.1670003 c 0.29700017 -0.86899996 0.45099998 -1.7269998 0.45099998 -2.574 v -0.9239998 c 0 -0.8470001 -0.1539998 -1.7050002 -0.45099998 -2.5740001 c -0.34099996 -1.0009999 -0.803 -1.727 -1.375 -2.167 c -0.032999992 -0.04399991 -0.055000007 -0.08799982 -0.055000007 -0.12099981 c 0 -0.099000216 0.055000007 -0.15400004 0.15400004 -0.15400004 c 0.010999978 0 0.04399997 0.010999918 0.07699996 0.032999992 Z "/>
        </symbol>
        <symbol id="g2A4C92B2BFAF4CC6B09F69CBFC11E437" overflow="visible">
            <path d="M 0 0m 1.97505 1.2749 v 1.7660501 c 0.8778 0 1.07635 -0.15674996 1.22265 -0.39709997 l 1.1181498 -1.8183 c 0.30305004 -0.49115002 0.7524004 -0.93005 1.3794003 -0.93005 c 0.15674973 0 0.3343997 0.020899996 0.4389 0.073149994 c 0.041800022 0.07315 0.031350136 0.1672 -0.010449886 0.2508 c -0.47025013 0 -0.73150015 0.3553 -1.0032 0.80464995 l -1.3167002 2.1945 c 0.44935012 0.14629984 1.3898499 0.6896999 1.3898499 1.7869499 c 0 0.52250004 -0.17764997 0.95095015 -0.5538497 1.3062501 c -0.50160027 0.47025013 -1.1495001 0.5015998 -1.8078501 0.5015998 c -0.4911499 0 -0.93005 -0.07314968 -1.30625 -0.07314968 c -0.36574996 0 -0.8569 0.010449886 -1.34805 0.020899773 c -0.0627 -0.062699795 -0.0627 -0.2821498 0 -0.34485006 c 0.7315 -0.03134966 0.90915 -0.083600044 0.90915 -0.95094967 v -4.19045 c 0 -0.86735 -0.17764997 -0.91959995 -0.90915 -0.95094997 c -0.0627 -0.0627 -0.0627 -0.28215 0 -0.34485 c 0.47024998 0.01045 0.96140003 0.0209 1.3585 0.0209 c 0.39709997 0 0.8882501 -0.01045 1.3480501 -0.0209 c 0.062699795 0.0627 0.062699795 0.28215 0 0.34485 c -0.73150015 0.031350017 -0.9091501 0.083600014 -0.9091501 0.95094997 Z m 0.8673501 5.1832 c 0.63745 0 1.3898501 -0.22989988 1.3898501 -1.4629998 c 0 -1.3062501 -0.7419503 -1.59885 -1.7556002 -1.59885 h -0.5016 v 2.39305 c 0 0.30305004 0.12540007 0.6687999 0.8673501 0.6687999 Z "/>
        </symbol>
        <symbol id="g7955F8D03B8EA44555B4A0B02921DF1E" overflow="visible">
            <path d="M 0 0m 4.7234 1.2749 v 4.81745 c 0 0.67924976 0.010449886 1.09725 0.010449886 1.09725 c 0 0.07315016 -0.041800022 0.10449982 -0.13584995 0.10449982 c -0.13584995 -0.083600044 -0.39709997 -0.19854975 -0.56430006 -0.24034977 c -0.22990012 0.15674973 -0.7105999 0.24034977 -1.07635 0.24034977 c -0.8778 0 -1.95415 -0.7628498 -1.95415 -2.49755 v -0.31349993 h -0.53295004 c -0.18810001 0 -0.24035001 -0.12540007 -0.24035001 -0.20900011 v -0.13584995 c 0 -0.05224991 0.010449991 -0.062699795 0.052249998 -0.062699795 h 0.70015 v -2.8006 c 0 -0.86735 -0.11495 -0.90915 -0.67925 -0.95094997 c -0.06270002 -0.0627 -0.06270002 -0.28215 0 -0.34485 c 0.35529998 0.01045 0.7419499 0.0209 1.09725 0.0209 c 0.37619996 0 0.76285005 -0.01045 1.1285999 -0.0209 c 0.06270003 0.0627 0.06270003 0.28215 0 0.34485 c -0.58519995 0.052249998 -0.7210499 0.083600014 -0.7210499 0.95094997 v 2.8006 h 0.97185004 c 0.09404993 0 0.24035001 0.041800022 0.24035001 0.13584995 v 0.20900011 c 0 0.041800022 -0.031350136 0.062699795 -0.083600044 0.062699795 h -1.1495 v 0.4911499 c 0 1.6093001 0.6583501 1.9646001 1.0031999 1.9646001 c 0.31350017 0 0.6897001 -0.16720009 0.8255501 -0.5120497 c 0.06270003 -0.13585043 0.16720009 -0.24035025 0.29259992 -0.28215027 c 0 -0.05224991 -0.010449886 -0.16720009 -0.010449886 -0.26125002 v -4.60845 c 0 -0.86735 -0.09405017 -0.91959995 -0.61654997 -0.95094997 c -0.06270003 -0.0627 -0.06270003 -0.28215 0 -0.34485 c 0.31349993 0.01045 0.62699986 0.0209 1.0345497 0.0209 c 0.44935036 0 0.8046503 -0.01045 1.13905 -0.0209 c 0.06270027 0.0627 0.06270027 0.28215 0 0.34485 c -0.58519983 0.041799992 -0.7314997 0.083600014 -0.7314997 0.95094997 Z "/>
        </symbol>
        <symbol id="gD7D2435C326F8AEC98C961458AB6EFCA" overflow="visible">
            <path d="M 0 0m 1.9018999 3.7411 c -0.24034989 0.3552997 -0.16719997 0.36575007 0.30305016 0.41799998 c 0.062699795 0.062699795 0.062699795 0.2821498 0 0.34485006 c -0.28215015 -0.010450363 -0.74195015 -0.02090025 -1.0554501 -0.02090025 c -0.31350005 0 -0.62700003 0.010449886 -0.8987 0.02090025 c -0.06270002 -0.06270027 -0.06270002 -0.28215027 0 -0.34485006 c 0.3553 -0.031350136 0.6479 -0.20900011 0.9405 -0.63745 l 0.90915 -1.3271501 c 0.05224991 -0.07314992 0.05224991 -0.104500055 0.010449886 -0.15674996 l -0.8778 -1.1286 c -0.41799992 -0.53295004 -0.6478999 -0.5643 -1.01365 -0.5852 c -0.0627 -0.0627 -0.0627 -0.28215 0 -0.34485 c 0.20899999 0.01045 0.4389 0.0209 0.7524 0.0209 c 0.3135 0 0.6061 -0.01045 0.87780005 -0.0209 c 0.062699914 0.0627 0.062699914 0.28215 0 0.34485 c -0.37620008 0.041799992 -0.4598 0.083600014 -0.2299 0.41799998 l 0.65835 0.95094997 c 0.083600044 0.12540007 0.12540007 0.11495006 0.18809986 0.020900011 l 0.6061001 -0.83599997 c 0.36575007 -0.5016 0.19854999 -0.5225 -0.13584995 -0.55385 c -0.06270003 -0.0627 -0.06270003 -0.28215 0 -0.34485 c 0.31349993 0.01045 0.65835 0.0209 1.03455 0.0209 c 0.3971002 0 0.67925 -0.01045 0.93005013 -0.0209 c 0.062699795 0.0627 0.062699795 0.28215 0 0.34485 c -0.47025013 0.031350017 -0.62700033 0.0627 -1.0450001 0.65835 l -0.9405 1.3271499 c -0.041800022 0.06270003 -0.05224991 0.09405017 0 0.15674996 l 0.8778 1.11815 c 0.38664985 0.49115014 0.63745 0.54340005 1.0136502 0.5747502 c 0.062699795 0.062699795 0.062699795 0.2821498 0 0.34485006 c -0.20900011 -0.010450363 -0.44935036 -0.02090025 -0.7628503 -0.02090025 c -0.31349993 0 -0.60609984 0.010449886 -0.8778 0.02090025 c -0.062699795 -0.06270027 -0.062699795 -0.28215027 0 -0.34485006 c 0.3866501 -0.041800022 0.5016 -0.07315016 0.25080013 -0.4284501 l -0.67925 -0.9509499 c -0.07314992 -0.104500055 -0.11494994 -0.09405017 -0.19854999 0.020900011 Z "/>
        </symbol>
        <symbol id="g3155D8AAB125E481A66E3281C937A8C6" overflow="visible">
            <path d="M 0 0m 3.39625 4.1591 c 0.56430006 -0.041800022 0.6270001 -0.16720009 0.40754986 -0.70015 l -0.84644985 -2.0482001 c -0.16720009 -0.40754998 -0.21945 -0.40754998 -0.3866501 0.031350017 l -0.7523999 2.01685 c -0.18809998 0.5016 -0.2299 0.62699986 0.32395005 0.70015 c 0.06270003 0.062699795 0.06270003 0.2821498 0 0.34485006 c -0.34485006 -0.010450363 -0.7106 -0.02090025 -1.0554501 -0.02090025 c -0.34485 0 -0.65835 0.010449886 -0.97185 0.02090025 c -0.0627 -0.06270027 -0.0627 -0.28215027 0 -0.34485006 c 0.55385 -0.06270027 0.627 -0.22990012 0.83599997 -0.76285005 l 1.3376 -3.3022 c 0.06270003 -0.15675 0.12540007 -0.21945 0.26125002 -0.21945 c 0.104500055 0 0.17764997 0.0627 0.25080013 0.24035001 l 1.3898501 3.27085 c 0.19854975 0.4598 0.31349993 0.72105026 0.89869976 0.7733002 c 0.062699795 0.062699795 0.062699795 0.2821498 0 0.34485006 c -0.20900011 -0.010450363 -0.45979977 -0.02090025 -0.73150015 -0.02090025 c -0.3448496 0 -0.7001498 0.010449886 -0.9613998 0.02090025 c -0.06270003 -0.06270027 -0.06270003 -0.28215027 0 -0.34485006 Z "/>
        </symbol>
        <symbol id="g3158FC9B20398C3D022403A7F40F1938" overflow="visible">
            <path d="M 0 0m 4.114 -0.121 l 1.6830001 0.121 v 0.41799998 c -0.3959999 0 -0.62699986 0.022000015 -0.71500015 0.088 c -0.08799982 0.066000044 -0.13199997 0.231 -0.13199997 0.48400003 v 6.644 l -1.6389999 -0.12099981 v -0.41800022 c 0.38500023 0 0.6270001 -0.032999992 0.71500015 -0.09899998 c 0.08799982 -0.065999985 0.12099981 -0.21999979 0.12099981 -0.47300005 v -2.2329998 c -0.35199976 0.40700006 -0.7919998 0.605 -1.3199999 0.605 c -0.6819999 0 -1.2649999 -0.2420001 -1.7379999 -0.737 c -0.473 -0.49500012 -0.715 -1.089 -0.715 -1.7820001 c 0 -0.6709999 0.21999997 -1.254 0.67099994 -1.749 c 0.4510001 -0.49499997 1.001 -0.74799997 1.672 -0.74799997 c 0.5609999 0 1.0339999 0.20899999 1.3969998 0.638 Z m -1.2429998 4.686 c 0.4729998 0 0.85800004 -0.20900011 1.1330001 -0.6270001 c 0.076999664 -0.12100005 0.10999966 -0.24199986 0.10999966 -0.385 v -2.2220001 c 0 -0.143 -0.032999992 -0.26399994 -0.10999966 -0.385 c -0.3080001 -0.49499997 -0.7260003 -0.737 -1.2430003 -0.737 c -0.45099998 0 -0.8139999 0.22 -1.0999999 0.671 c -0.19800007 0.33000004 -0.29700005 0.82500005 -0.29700005 1.485 c 0 1.1989999 0.40700006 2.2 1.5070001 2.2 Z "/>
        </symbol>
        <symbol id="g91B22411A885B809DF842DF9FB261DDF" overflow="visible">
            <path d="M 0 0m 3.6806 2.7566 c 0.5390003 0.13860011 1.1242001 0.56980014 1.1242001 1.1858001 c 0 0.40810013 -0.19250011 0.73150015 -0.57749987 0.9856 c -0.33110023 0.22329998 -0.7161002 0.3311 -1.1396003 0.3311 h -2.8105 v -0.30030012 h 0.21560001 c 0.26950002 0 0.43120003 -0.0230999 0.48509997 -0.06159973 c 0.053900063 -0.03850031 0.08470005 -0.12319994 0.08470005 -0.2618003 v -4.0116997 c 0 -0.13860002 -0.030799985 -0.23100004 -0.08470005 -0.26950002 c -0.053899944 -0.03850001 -0.21559995 -0.053900003 -0.48509997 -0.053900003 h -0.21560001 v -0.3003 h 3.0107 c 0.4389 0 0.8316002 0.1232 1.1704001 0.3696 c 0.36959982 0.26950002 0.55439997 0.6237 0.55439997 1.0548999 c 0 0.7161 -0.6775999 1.2089 -1.3321002 1.3320999 Z m 0.33110023 1.1858001 c 0 -0.64680004 -0.5390003 -1.0934 -1.1858001 -1.0934 h -1.0703001 v 1.8403001 c 0 0.27719975 0.03850007 0.26949978 0.33879995 0.26949978 h 0.93939996 c 0.56980014 0 0.97790027 -0.44659996 0.97790027 -1.0163999 Z m 0.1770997 -2.5102 v -0.20019996 c -0.015399933 -0.17709994 -0.11549997 -0.37730002 -0.30799985 -0.5852 c -0.20020008 -0.23099998 -0.47740006 -0.34649998 -0.8392999 -0.34649998 h -0.94710016 c -0.30029988 0 -0.33879995 -0.0076999962 -0.33879995 0.26950002 v 2.0482001 h 1.3937001 c 0.6236999 0 1.0394998 -0.53900003 1.0394998 -1.1858001 Z "/>
        </symbol>
        <symbol id="gDB53F8619B2DD91365F060A9A25D7401" overflow="visible">
            <path d="M 0 0m 7.3589997 0.957 h -3.2009997 c -0.75900006 0 -1.3859999 0.25300002 -1.914 0.781 c -0.528 0.528 -0.79199994 1.166 -0.79199994 1.9249998 c 0 0.75900006 0.26399994 1.3970001 0.79199994 1.925 c 0.5280001 0.52800035 1.155 0.78100014 1.914 0.78100014 h 3.2009997 c 0.17600012 0 0.26400042 0.08799982 0.26400042 0.26399994 c 0 0.17600012 -0.0880003 0.26399994 -0.26400042 0.26399994 h -3.2009997 c -0.90199995 0 -1.661 -0.3080001 -2.288 -0.93499994 c -0.627 -0.62699986 -0.935 -1.3969998 -0.935 -2.299 c 0 -0.90199995 0.30800003 -1.6719999 0.935 -2.2989998 c 0.627 -0.627 1.386 -0.93499994 2.288 -0.93499994 h 3.2009997 c 0.17600012 0 0.26400042 0.08800003 0.26400042 0.26400003 c 0 0.14299995 -0.12100029 0.264 -0.26400042 0.264 Z m 0 -1.837 h -5.929 c -0.16499996 0 -0.2529999 -0.088 -0.2529999 -0.25300002 c 0 -0.176 0.08799994 -0.26399994 0.2529999 -0.26399994 h 5.929 c 0.17600012 0 0.26400042 0.08799994 0.26400042 0.26399994 c 0 0.13199997 -0.12100029 0.25300002 -0.26400042 0.25300002 Z "/>
        </symbol>
        <symbol id="g2F2DD794152BD7EC68607697E660BD55" overflow="visible">
            <path d="M 0 0m 1.99595 1.2749 v 1.95415 c 0.35529995 -0.010449886 0.65835 -0.12539983 0.8673501 -0.39709997 l 1.64065 -2.0691 c 0.20899963 -0.2717 0.35529995 -0.55385 0.37619972 -0.72104996 c 0 -0.03135 0.010450363 -0.0627 0.05224991 -0.0627 c 0.20900011 0.01045 0.34485006 0.0209 0.56430006 0.0209 c 0.35529995 0 0.7106004 -0.01045 1.05545 -0.0209 c 0.06270027 0.0627 0.06270027 0.28215 0 0.34485 c -0.30305004 0.031350017 -0.5956497 0.0627 -0.9196 0.4389 l -2.28855 2.717 c -0.083599806 0.09404993 -0.13584995 0.17764997 -0.13584995 0.26125002 c 0 0.07314992 0.010450125 0.14629984 0.36575007 0.5120499 l 1.5361502 1.57795 c 0.48069954 0.51205015 0.89869976 0.5538502 1.3167 0.58519983 c 0.062699795 0.06270027 0.062699795 0.28215027 0 0.34485006 c -0.3239503 -0.010449886 -0.65835 -0.020899773 -0.99275017 -0.020899773 c -0.3866501 0 -0.79419994 0.010449886 -1.18085 0.020899773 c -0.062699795 -0.062699795 -0.062699795 -0.2821498 0 -0.34485006 c 0.3762002 -0.03134966 0.73150015 -0.07314968 0.29260015 -0.5433998 l -1.7242501 -1.8392 c -0.21945 -0.24035001 -0.4598 -0.37619996 -0.8255501 -0.4075501 v 1.8392003 c 0 0.8673496 0.17764997 0.9196 0.9091499 0.95094967 c 0.06270003 0.06270027 0.06270003 0.28215027 0 0.34485006 c -0.48069978 -0.010449886 -0.9718499 -0.020899773 -1.3584999 -0.020899773 c -0.39709997 0 -0.8778 0.010449886 -1.34805 0.020899773 c -0.0627 -0.062699795 -0.0627 -0.2821498 0 -0.34485006 c 0.7315 -0.03134966 0.90915 -0.083600044 0.90915 -0.95094967 v -4.19045 c 0 -0.86735 -0.17764997 -0.91959995 -0.90915 -0.95094997 c -0.0627 -0.0627 -0.0627 -0.28215 0 -0.34485 c 0.47025 0.01045 0.95095 0.0209 1.3585 0.0209 c 0.39709997 0 0.8778 -0.01045 1.3480499 -0.0209 c 0.06270003 0.0627 0.06270003 0.28215 0 0.34485 c -0.7314999 0.031350017 -0.9091499 0.083600014 -0.9091499 0.95094997 Z "/>
        </symbol>
        <symbol id="gD8A0BA8E4A8A1F9DDEF5976D239FD6EA" overflow="visible">
            <path d="M 0 0m 0.99275 1.2749 c 0 -0.86735 -0.11495 -0.91959995 -0.7524 -0.95094997 c -0.06269999 -0.0627 -0.06269999 -0.28215 0 -0.34485 c 0.36575 0.01045 0.7524 0.0209 1.1704 0.0209 c 0.41799998 0 0.8151001 -0.01045 1.1599499 -0.0209 c 0.06270003 0.0627 0.06270003 0.28215 0 0.34485 c -0.63745 0.031350017 -0.7523999 0.083600014 -0.7523999 0.95094997 v 4.81745 c 0 0.67924976 0.041800022 1.09725 0.041800022 1.09725 c 0 0.07315016 -0.041800022 0.10449982 -0.13585007 0.10449982 c -0.26125002 -0.10449982 -1.045 -0.25079966 -1.4629999 -0.2821498 c -0.020899996 -0.083600044 0 -0.25080013 0.0627 -0.31349993 c 0.6061 -0.041800022 0.6688 -0.07315016 0.6688 -0.8569002 Z "/>
        </symbol>
        <symbol id="gFFDE48D6CD0455D3C911B0F145DDA074" overflow="visible">
            <path d="M 0 0m 3.4265 1.925 c 0 0.13090014 0 0.22329998 -0.007700205 0.27719998 c -0.0230999 0.25410008 -0.16170001 0.51590014 -0.4311998 0.78540015 c -0.29260015 0.29259992 -0.64680004 0.4389 -1.0626001 0.4389 c -0.8392999 0 -1.5014999 -0.6622002 -1.5014999 -1.5015001 c 0 -0.8392999 0.66220003 -1.5014999 1.5014999 -1.5014999 c 0.8392999 0 1.5015001 0.66220003 1.5015001 1.5014999 Z m -0.3619001 0 c 0 -0.18479991 -0.015399933 -0.31569993 -0.03850007 -0.39269996 c -0.046200037 -0.12320006 -0.14629984 -0.26180005 -0.29259992 -0.41579998 c -0.22329998 -0.22330004 -0.4928 -0.33110005 -0.80850005 -0.33110005 c -0.6314 0 -1.1396 0.5082 -1.1396 1.1396 c 0 0.6314001 0.5082 1.1396 1.1396 1.1396 c 0.6314001 0 1.1396 -0.50819993 1.1396 -1.1396 Z "/>
        </symbol>
        <symbol id="g5EB4D00C7AAC327EDE3722740A653847" overflow="visible">
            <path d="M 0 0m 2.112 2.75 c 0 0.319 -0.26399994 0.58299994 -0.58299994 0.58299994 c -0.319 0 -0.58300006 -0.26399994 -0.58300006 -0.58299994 c 0 -0.319 0.26400006 -0.58299994 0.58300006 -0.58299994 c 0.319 0 0.58299994 0.26399994 0.58299994 0.58299994 Z "/>
        </symbol>
        <symbol id="g5C79B8CB4172B7B92B8F3FDDC549F5C" overflow="visible">
            <path d="M 0 0m 8.129 5.841 c 0 0.5609999 -0.28599977 0.9899998 -0.84699965 1.2979999 c -0.4510002 0.25300026 -0.99000025 0.37400007 -1.5950003 0.37400007 h -3.1019998 c -0.25300002 0 -0.36300015 -0.011000156 -0.36300015 -0.26399994 c 0 -0.07700014 0.032999992 -0.13199997 0.099000216 -0.14300013 c 0.109999895 -0.011000156 0.19799995 -0.021999836 0.25299978 -0.021999836 c 0.33000016 -0.011000156 0.5170002 -0.032999992 0.572 -0.04400015 c 0.055000067 -0.011000156 0.08800006 -0.04400015 0.08800006 -0.09899998 c 0 -0.021999836 -0.010999918 -0.08799982 -0.04399991 -0.19799995 l -1.452 -5.841 c -0.055000067 -0.24200004 -0.16500008 -0.39600003 -0.33000004 -0.451 c -0.07700002 -0.022000015 -0.27499998 -0.033000022 -0.616 -0.033000022 c -0.24199998 0 -0.341 -0.010999978 -0.341 -0.253 c 0 -0.12099999 0.066000015 -0.176 0.19799998 -0.16499999 l 1.3640001 0.033 l 1.3859999 -0.033 c 0.17600012 -0.011 0.26399994 0.088 0.26399994 0.253 c 0 0.110000014 -0.12099981 0.16499999 -0.352 0.16499999 c -0.43999982 0 -0.65999985 0.055000007 -0.65999985 0.15400004 c 0 0 0.010999918 0.021999955 0.032999992 0.176 l 0.704 2.849 h 1.2649999 c 0.7590003 0 1.144 -0.319 1.144 -0.94599986 c 0 -0.09899998 -0.05499983 -0.34100008 -0.1539998 -0.737 c -0.12100029 -0.462 -0.17600012 -0.77 -0.17600012 -0.93500006 c 0 -0.83599997 0.64900017 -1.221 1.4850001 -1.221 c 0.3079996 0 0.605 0.143 0.90199995 0.41799998 c 0.29699993 0.275 0.4510002 0.572 0.4510002 0.88 c 0 0.110000014 -0.055000305 0.16499996 -0.1760006 0.16499996 c -0.076999664 0 -0.14299965 -0.054999948 -0.17599964 -0.176 c -0.12100029 -0.34099996 -0.2750001 -0.594 -0.4510002 -0.737 c -0.17600012 -0.143 -0.34100008 -0.22 -0.50600004 -0.22 c -0.25299978 0 -0.38499975 0.20899999 -0.38499975 0.616 c 0 0.264 0.032999992 0.671 0.11000013 1.232 c 0.032999992 0.23100007 0.043999672 0.39600003 0.043999672 0.5170001 c 0 0.58299994 -0.3080001 1.0119998 -0.9239998 1.276 c 1.0339999 0.25299978 2.2879996 0.9899998 2.2879996 2.112 Z m -1.4299998 0.93499994 c 0.22000027 -0.14300013 0.32999992 -0.38500023 0.32999992 -0.72599983 c 0 -0.22000027 -0.043999672 -0.47300005 -0.14299965 -0.77000046 c -0.2970004 -0.90199995 -1.0450001 -1.3529997 -2.244 -1.3529997 h -1.1660001 l 0.6930001 2.783 c 0.05499983 0.23099995 0.14299965 0.35199976 0.26399994 0.36299992 c 0.05499983 0.011000156 0.2750001 0.011000156 0.65999985 0.011000156 c 0.71500015 0 1.1329999 -0.022000313 1.606 -0.3080001 Z "/>
        </symbol>
        <symbol id="g6C76CE86655F84C62F73E6051BDA0E63" overflow="visible">
            <path d="M 0 0m 5.412 0.187 c 0.17599964 0 0.26399994 0.088 0.26399994 0.264 v 4.5979996 c 0 0.17600012 -0.0880003 0.26400042 -0.26399994 0.26400042 h -4.598 c -0.176 0 -0.264 -0.0880003 -0.264 -0.26400042 v -4.5979996 c 0 -0.176 0.088 -0.264 0.264 -0.264 Z "/>
        </symbol>
    </defs>
</svg>
